<?xml version="1.0" encoding="UTF-8"?>
<svg width="64px" height="64px" viewBox="0 0 64 64" version="1.1" xmlns="http://www.w3.org/2000/svg" xmlns:xlink="http://www.w3.org/1999/xlink">
    <!-- Generator: Sketch 59 (86127) - https://sketch.com -->
    <title>icon/内页-数字人民币创新实验室</title>
    <desc>Created with Sketch.</desc>
    <g id="页面-2" stroke="none" stroke-width="1" fill="none" fill-rule="evenodd">
        <g id="图标" transform="translate(-488.000000, -692.000000)" fill-rule="nonzero">
            <g id="icon/内页-数字人民币创新实验室" transform="translate(488.000000, 692.000000)">
                <rect id="矩形" fill="#000000" opacity="0" x="0" y="0" width="64" height="64"></rect>
                <path d="M20.2219258,4 C29.9035002,4 40.185424,6.68062914 40.4409594,11.6527545 L40.4458221,11.8425914 L40.4458221,11.8425914 L40.4457324,28.828413 C41.203844,28.7983128 41.9630437,28.7831813 42.7187651,28.7831813 C53.0354421,28.7831813 64,31.6019365 64,36.8258906 C64,36.9217243 63.99631,37.0167485 63.9890016,37.1109607 C63.9962051,37.1592607 63.9998424,37.2098807 63.9998424,37.2613581 L63.9998424,53.5967863 C63.9998424,58.5373122 53.0354422,61.2040281 42.7187651,61.2040281 C32.4042162,61.2040281 21.4417076,58.537391 21.4417076,53.5967075 L21.4420943,53.1602294 C21.4089806,53.1602742 21.3758469,53.1602942 21.3427126,53.1602942 C21.1479542,53.1602942 20.953117,53.1592695 20.7614326,53.1592695 L20.221847,53.1572203 C10.4187458,53.1572203 -9.23705556e-13,50.4082976 -9.23705556e-13,45.3145502 L-9.23705556e-13,11.8425914 C7.88264649e-05,6.74892261 10.4188246,4 20.2219258,4 Z M23.5731757,49.0816839 L23.5749857,53.5967863 C23.5749857,55.8821825 30.8582871,59.07075 42.7186863,59.0707499 C54.5822382,59.0707499 61.8665642,55.8821824 61.8665642,53.5967863 L61.8670006,49.082417 C58.1782386,51.7887298 50.2747758,53.2186192 42.7187651,53.2186192 C35.1636309,53.2186192 27.260855,51.7884715 23.5731757,49.0816839 Z M42.7187651,44.8686 C35.1636309,44.8686 27.260855,43.3562885 23.5731757,40.4941869 L23.5749857,45.612402 L23.5749857,45.612402 C23.5749857,47.8977982 30.8582871,51.085341 42.7186863,51.0853411 C54.5822382,51.0853411 61.8665642,47.8978771 61.8665642,45.612402 L61.8671304,40.4949621 C58.1783231,43.3565616 50.2747757,44.8686 42.7187651,44.8686 Z M2.13333108,40.7023633 L2.13327815,45.3143925 C2.13327815,48.0091675 9.86867746,51.0237845 20.2217682,51.0237845 L20.770733,51.0258337 L21.441,51.025 L21.4416151,44.886143 C21.3819863,44.8862777 21.3222524,44.8863339 21.2625551,44.8863339 C21.0792253,44.8863339 20.8958954,44.8863339 20.7177676,44.8853093 L20.2219258,44.8842847 C13.1139967,44.8842847 5.68240735,43.4391054 2.13333108,40.7023633 Z M2.13333108,32.4294276 L2.13335697,37.0405111 L2.13335697,37.0405111 C2.13335697,39.7363107 9.86875629,42.7509277 20.221847,42.7509277 L20.72494,42.7519523 C20.9597491,42.7536279 21.2019391,42.7547963 21.441692,42.7542518 L21.4417076,37.2613581 C21.4417076,37.2088372 21.4454938,37.1572089 21.4528085,37.106731 C21.4453188,37.0147266 21.4417076,36.9207048 21.4417076,36.8258906 C21.4417076,36.7593068 21.4434885,36.6931138 21.4470263,36.6273123 C21.3434613,36.6265506 21.2383078,36.6246611 21.1323483,36.6227776 L20.2219258,36.611349 C13.1139967,36.611349 5.68240735,35.1661697 2.13333108,32.4294276 Z M42.7187651,30.9165383 C32.9181805,30.9165383 25.3330391,33.4128853 23.8419692,35.9362126 C23.8139167,36.0081473 23.7781597,36.076176 23.7357787,36.1394939 C23.6293358,36.3694675 23.5750645,36.5987733 23.5750645,36.8258906 C23.5750645,39.6154832 31.7625619,42.735243 42.7187651,42.735243 C53.6781211,42.735243 61.866643,39.6154833 61.866643,36.8258906 C61.866643,34.0362979 53.6781211,30.9165383 42.7187651,30.9165383 Z M20.2219258,28.3373888 C13.1139967,28.3373888 5.68240735,26.8922095 2.13333108,24.155888 L2.13335697,28.7675755 L2.13335697,28.7675755 C2.13335697,31.4633751 9.86875629,34.4779921 20.221847,34.477992 L21.1728606,34.4894206 C21.5321391,34.496348 21.881249,34.5037646 22.241433,34.4990132 C24.4873042,31.4009626 31.1560231,29.5061422 38.3123984,28.9530049 L38.3122946,24.1558538 C34.7628887,26.892168 27.3305979,28.3373888 20.2219258,28.3373888 Z M20.2219258,19.6853403 C13.1139967,19.6853403 5.68240735,18.240161 2.13333108,15.5038395 L2.13335697,20.4947186 L2.13335697,20.4947186 C2.13335697,23.1894936 9.86875629,26.2041106 20.221847,26.2041106 C30.5759623,26.2041106 38.3124651,23.1894936 38.3124651,20.4947186 L38.3123588,15.5038395 C34.7629302,18.240161 27.3305979,19.6853403 20.2219258,19.6853403 Z M20.2219258,6.13327815 C9.86883511,6.13327815 2.1334358,9.14789513 2.1334358,11.8426701 C2.1334358,14.5374451 9.86883511,17.5520622 20.2219258,17.5520622 C30.5760411,17.5520622 38.3125439,14.5374452 38.3125439,11.8426701 C38.3125439,9.14789506 30.5760411,6.13327815 20.2219258,6.13327815 Z" id="形状结合" fill="#FFFFFF"></path>
            </g>
        </g>
    </g>
</svg>
