<?xml version="1.0" encoding="UTF-8"?>
<svg width="64px" height="64px" viewBox="0 0 64 64" version="1.1" xmlns="http://www.w3.org/2000/svg" xmlns:xlink="http://www.w3.org/1999/xlink">
    <!-- Generator: Sketch 59 (86127) - https://sketch.com -->
    <title>icon/内页-职教高考</title>
    <desc>Created with Sketch.</desc>
    <g id="页面-2" stroke="none" stroke-width="1" fill="none" fill-rule="evenodd">
        <g id="画板" transform="translate(-186.000000, -692.000000)" fill-rule="nonzero">
            <g id="icon/内页-职教高考" transform="translate(186.000000, 692.000000)">
                <rect id="矩形" fill="#000000" opacity="0" x="0" y="0" width="64" height="64"></rect>
                <path d="M43.3,0.25 C45.3,0.25 47.1,1.7 47.8,3.8 C49.1262276,8.03537211 49.5739305,12.5269806 49.1744292,17.775954 L55.25,11.7 C56.2,10.75 57.8,10.75 58.75,11.7 L63.05,16 C64,16.95 64,18.55 63.05,19.5 L45.8583568,36.69 L45.7882812,37.025 C45.678125,37.55 45.575,38.075 45.5,38.6 C44.7952381,42.3587302 44.046326,47.2212144 44.3734165,52.1502743 L46.3,52.15 C49.1,52.15 51.4,54.75 51.4,57.95 C51.45,61.15 49.15,63.75 46.35,63.75 L8.85,63.75 C5.95,63.75 3.85,61.6 2.9,57.75 C0.6,48.35 3,36.55 5.15,26.15 C5.65757019,23.6582918 6.15715606,21.1985209 6.5713897,18.8505113 L3.6,18.85 C1.05,18.7 -0.05,15.55 0.2,9.3 C0.35,5.75 1.45,2.65 3.05,1.2 C3.7090796,0.587997512 4.50113449,0.286270683 5.25922885,0.294819513 C5.34930336,0.265706693 5.4470339,0.25 5.55,0.25 L43.3,0.25 Z M43.3,2.25 L7.9,2.25 C9.17450128,4.17186701 9.63048227,6.81403187 9.5825604,9.96785355 C9.59426588,10.0271033 9.6,10.0879145 9.6,10.15 C9.6,10.2296627 9.59055945,10.3072275 9.57274188,10.3816309 C9.50873629,12.6569879 9.19554528,15.1878878 8.74741523,17.8982048 L8.75,17.85 C8.75,17.9467593 8.73607253,18.0404235 8.71012331,18.1290871 C8.26336579,20.7895142 7.69160338,23.6201547 7.1,26.55 C5,36.75 2.65,48.35 4.85,57.3 C5.55,60.25 6.9,61.75 8.85,61.75 L8.9,61.75 L8.9,61.75 C9.05,61.75 9.35,61.75 9.6,61.15 C10.4,59.35 9.6,55.45 8.15,53.85 C7.9,53.55 7.8,53.15 7.95,52.75 C8.1,52.4 8.45,52.15 8.85,52.15 L42.3168997,52.1502516 C42.034294,47.483725 42.6290715,42.9160753 43.3017826,39.2467519 L36.55,46 C36.4,46.15 36.25,46.25 36.05,46.25 L28,47.9 C28,47.9 27.9,47.95 27.85,47.95 C27.6,47.95 27.35,47.85 27.15,47.65 C26.9,47.4 26.8,47.05 26.9,46.75 L28.5,38.7 C28.55,38.5 28.65,38.35 28.75,38.2 L46.9823568,19.967 L47.0263325,19.5952487 C47.6770408,13.7397959 47.3464286,8.88392857 45.9,4.4 C45.5,3.1 44.45,2.25 43.3,2.25 Z M43.406,54.1504 L10.75,54.15 C11.9,56.5 12.3,59.75 11.55,61.75 L46.35,61.75 C48.05,61.75 49.45,60.05 49.45,57.95 C49.45,55.85 48.05,54.15 46.35,54.15 L43.7808108,54.1504171 C43.7077102,54.1757404 43.6304602,54.1926854 43.55,54.2 C43.47,54.16 43.422,54.152 43.406,54.1504 Z M46.8,55.55 C46.95,55.55 47.1,55.6 47.15,55.7 C47.9,56.55 48.9,58.65 47.1,60.35 C47.05,60.5 46.9,60.5 46.8,60.5 C46.65,60.5 46.55,60.45 46.45,60.35 C46.25,60.15 46.25,59.85 46.45,59.65 C47.75,58.45 46.9,57.05 46.55,56.55 L14.8,56.55 C14.5,56.55 14.3,56.35 14.3,56.05 C14.3,55.75 14.5,55.55 14.8,55.55 L46.8,55.55 Z M15.35,35.1 C16.65,36.35 17.35,38.4 17.25,40.4 C18.1,40.55 19,40.5 19.8,40.2 C20,40.15 20.2,40.2 20.35,40.35 C20.8,40.9 20.75,41.6 20.7,42.25 C20.7,42.4 20.65,42.6 20.65,42.75 C20.65,43.55 20.95,44.35 21.5,44.7 C21.95,45 22.55,44.95 23,44.55 C23.2,44.35 23.5,44.4 23.7,44.6 C23.9,44.8 23.85,45.1 23.65,45.3 C22.85,46 21.75,46.1 20.9,45.5 C20.1,44.95 19.6,43.85 19.65,42.7 C19.65,42.5 19.65,42.35 19.7,42.15 C19.75,41.85 19.75,41.5 19.7,41.25 C18.65,41.55 17.6,41.55 16.55,41.25 C16.3,41.2 16.15,40.95 16.2,40.7 C16.35,39.2 16,37.55 15.2,36.4 C13.85,40.4 12.8,44.6 12.05,48.85 C12,49.05 11.85,49.25 11.6,49.25 L11.55,49.25 C11.35,49.25 11.2,49.15 11.1,48.95 L9.1,44.65 C9,44.4 9.1,44.1 9.35,44 C9.6,43.9 9.9,44 10,44.25 L11.35,47.15 C12.15,43.1 13.2,39.1 14.55,35.25 C14.6,35.1 14.75,34.95 14.9,34.95 C15.05,34.9 15.25,34.95 15.35,35.1 Z M30.2023568,40.344 L29.15,45.65 L34.4823568,44.592 L30.2023568,40.344 Z M56.2743568,19.225 L33.3743568,42.125 L35.5493568,44.3 L43.9665027,35.8830772 C44.06622,35.657375 44.2482793,35.4815502 44.4686011,35.3800916 L58.4493568,21.4 L56.2743568,19.225 Z M53.4423568,16.393 L30.4993568,39.25 L32.6743568,41.425 L55.5743568,18.525 L53.4423568,16.393 Z M19.1,18.35 C19.35,18.35 19.55,18.55 19.6,18.8 C19.8,20.75 19.6,22.8 18.95,24.7 C18.9,24.9 18.75,25.05 18.5,25.05 L12.7,25.05 C12.55,25.05 12.4,24.95 12.3,24.85 C12.2,24.7 12.2,24.55 12.25,24.4 C12.85,22.6 13.1,20.7 12.85,18.9 C12.85,18.75 12.9,18.6 12.95,18.5 C13.05,18.4 13.2,18.35 13.3,18.35 L19.1,18.35 Z M39.6,23.6 C39.9,23.6 40.1,23.8 40.1,24.1 C40.1,24.4 39.85,24.6 39.6,24.6 L23.65,24.6 C23.35,24.6 23.15,24.4 23.15,24.1 C23.15,23.8 23.35,23.6 23.65,23.6 L39.6,23.6 Z M18.7,19.35 L13.9,19.35 C14,20.85 13.85,22.5 13.4,24.05 L18.15,24.05 C18.65,22.5 18.8,20.9 18.7,19.35 Z M56.75,13.1 L54.1443568,15.695 L59.1493568,20.7 L61.75,18.1 C61.95,17.9 61.95,17.6 61.75,17.4 L57.45,13.1 C57.25,12.9 56.95,12.9 56.75,13.1 Z M39.6,18.95 C39.9,18.95 40.1,19.15 40.1,19.45 C40.1,19.75 39.85,19.95 39.6,19.95 L23.65,19.95 C23.35,19.95 23.15,19.75 23.15,19.45 C23.15,19.15 23.35,18.95 23.65,18.95 L39.6,18.95 Z M7.55339249,11.1502748 L6.1,11.15 C6.37776963,13.6846478 6.29387067,15.5682922 5.86504654,16.8511634 L6.90637323,16.8504544 C7.22537338,14.825035 7.45919794,12.9062474 7.55339249,11.1502748 Z M5.32213913,2.29921088 L5.3,2.3 L5.3,2.3 C5.05,2.3 4.7,2.4 4.4,2.7 C3.4,3.6 2.35,6.05 2.2,9.4 C2,14.3 2.75,16.65 3.65,16.85 C3.85,16.7 4.75,15.6 4,10.3 C3.95,10 4,9.7 4.2,9.5 C4.4,9.3 4.65,9.15 4.95,9.15 L7.59631124,9.14987973 C7.54949595,6.06436109 6.91717039,3.65108151 5.32213913,2.29921088 Z M20.15,7.65 C20.4,7.65 20.6,7.8 20.65,8.05 C21.1,10 21.1,12.1 20.65,14.05 C20.6,14.3 20.4,14.45 20.15,14.45 L14.35,14.45 C14.2,14.45 14.05,14.4 13.95,14.25 C13.85,14.15 13.8,14 13.85,13.85 C14.25,12 14.25,10.1 13.85,8.25 C13.8,8.1 13.85,7.95 13.95,7.85 C14.05,7.75 14.2,7.65 14.35,7.65 L20.15,7.65 Z M41.1,12.95 C41.4,12.95 41.6,13.15 41.6,13.45 C41.6,13.75 41.35,13.95 41.05,13.95 L25.15,13.95 C24.85,13.95 24.65,13.75 24.65,13.45 C24.65,13.15 24.85,12.95 25.15,12.95 L41.1,12.95 Z M19.8,8.65 L15,8.65 C15.25,10.25 15.25,11.9 15,13.45 L19.8,13.45 C20.1,11.85 20.1,10.25 19.8,8.65 Z M41.1,8.3 C41.4,8.3 41.6,8.5 41.6,8.8 C41.6,9.1 41.35,9.3 41.05,9.3 L25.15,9.3 C24.85,9.3 24.65,9.1 24.65,8.8 C24.65,8.5 24.85,8.3 25.15,8.3 L41.1,8.3 Z" id="形状结合" fill="#FFFFFF"></path>
            </g>
        </g>
    </g>
</svg>