<?xml version="1.0" encoding="UTF-8"?>
<svg width="64px" height="64px" viewBox="0 0 64 64" version="1.1" xmlns="http://www.w3.org/2000/svg" xmlns:xlink="http://www.w3.org/1999/xlink">
    <!-- Generator: Sketch 59 (86127) - https://sketch.com -->
    <title>icon/内页-开放教育</title>
    <desc>Created with Sketch.</desc>
    <g id="页面-2" stroke="none" stroke-width="1" fill="none" fill-rule="evenodd">
        <g id="画板" transform="translate(-390.000000, -692.000000)" fill-rule="nonzero">
            <g id="icon/内页-开放教育" transform="translate(390.000000, 692.000000)">
                <rect id="矩形" fill="#000000" opacity="0" x="0" y="0" width="64" height="64"></rect>
                <path d="M31.979812,7.19692579 L31.75,7.25 C39.45,5.45 48.35,3.9 57.25,8.35 C57.6,8.5 57.8,8.85 57.8,9.25 L57.8,12.9497916 L62.75,12.95 C63.3,12.95 63.75,13.4 63.75,13.95 L63.75,57.6 C63.75,58.15 63.3,58.6 62.75,58.6 L1.25,58.6 C0.7,58.6 0.25,58.15 0.25,57.6 L0.25,13.95 C0.25,13.4 0.7,12.95 1.25,12.95 L6.15,12.9497916 L6.15,9.25 C6.15,8.85 6.35,8.55 6.7,8.35 C15.5147495,3.8931042 24.3785457,5.3708611 31.979812,7.19692579 Z M6.15,14.9497916 L2.25,14.95 L2.25,56.6 L61.75,56.6 L61.75,14.95 L57.8,14.9497916 L57.8,53.55 C57.8,53.9 57.6,54.2 57.3,54.4 C57.22,54.48 57.076,54.528 56.9448,54.544 L56.85,54.55 C56.7,54.55 56.55,54.5 56.4,54.45 C48.1,50.25 39.6,51.75 32.25,53.5 C32.1578231,53.5153628 32.0656463,53.521285 31.9749197,53.5163162 C31.885034,53.5213286 31.792517,53.5154195 31.7,53.5 C24.35,51.75 15.85,50.25 7.55,54.45 C7.45,54.5 7.3,54.55 7.15,54.55 C6.95,54.55 6.8,54.5 6.65,54.4 C6.35,54.2 6.15,53.9 6.15,53.55 L6.15,14.9497916 Z M33,9 L33,51.25 C36.65,50.45 40.5,49.75 44.5,49.75 C48.2,49.75 52,50.35 55.8,52 L55.8,9.85 C48,6.15 40,7.4 33,9 Z M8.15,9.85 L8.15,52 C16.1,48.55 24,49.7 31,51.3 L31,9 C24,7.4 16,6.15 8.15,9.85 Z M51.95,44.85 C52.2,44.95 52.35,45.25 52.25,45.5 C52.15,45.75 51.95,45.85 51.75,45.85 C51.7,45.85 51.6,45.85 51.55,45.8 C46.6,43.8 41.7,44.45 37.2,45.4 C36.95,45.45 36.65,45.3 36.6,45 C36.55,44.75 36.7,44.45 37,44.4 C41.45,43.45 46.75,42.75 51.95,44.85 Z M27.1,44.85 C27.35,44.95 27.5,45.25 27.4,45.5 C27.3,45.75 27.1,45.85 26.9,45.85 C26.85,45.85 26.75,45.85 26.7,45.8 C21.75,43.8 16.85,44.45 12.35,45.4 C12.1,45.45 11.8,45.3 11.75,45 C11.7,44.75 11.85,44.45 12.15,44.4 C16.6,43.45 21.9,42.75 27.1,44.85 Z M51.95,37.5 C52.2,37.6 52.35,37.9 52.25,38.15 C52.15,38.4 51.95,38.5 51.75,38.5 C51.7,38.5 51.6,38.5 51.55,38.45 C46.6,36.45 41.7,37.1 37.2,38.05 C36.95,38.1 36.65,37.95 36.6,37.65 C36.55,37.4 36.7,37.1 37,37.05 C41.45,36.1 46.75,35.4 51.95,37.5 Z M27.1,37.5 C27.35,37.6 27.5,37.9 27.4,38.15 C27.3,38.4 27.1,38.5 26.9,38.5 C26.85,38.5 26.75,38.5 26.7,38.45 C21.75,36.45 16.85,37.1 12.35,38.05 C12.1,38.1 11.8,37.95 11.75,37.65 C11.7,37.4 11.85,37.1 12.15,37.05 C16.6,36.1 21.9,35.4 27.1,37.5 Z M51.95,30.15 C52.2,30.25 52.35,30.55 52.25,30.8 C52.15,31.05 51.95,31.15 51.75,31.15 C51.7,31.15 51.6,31.15 51.55,31.1 C46.6,29.1 41.7,29.75 37.2,30.7 C36.95,30.75 36.65,30.6 36.6,30.3 C36.55,30.05 36.7,29.75 37,29.7 C41.45,28.75 46.75,28.05 51.95,30.15 Z M27.1,30.15 C27.35,30.25 27.5,30.55 27.4,30.8 C27.3,31.05 27.1,31.15 26.9,31.15 C26.85,31.15 26.75,31.15 26.7,31.1 C21.75,29.1 16.85,29.75 12.35,30.7 C12.1,30.75 11.8,30.6 11.75,30.3 C11.7,30.05 11.85,29.75 12.15,29.7 C16.6,28.75 21.9,28.05 27.1,30.15 Z M51.95,22.8 C52.2,22.9 52.35,23.2 52.25,23.45 C52.15,23.7 51.95,23.8 51.75,23.8 C51.7,23.8 51.6,23.8 51.55,23.75 C46.6,21.75 41.7,22.4 37.2,23.35 C36.95,23.4 36.65,23.25 36.6,22.95 C36.55,22.7 36.7,22.4 37,22.35 C41.45,21.4 46.75,20.7 51.95,22.8 Z M27.1,22.8 C27.35,22.9 27.5,23.2 27.4,23.45 C27.3,23.7 27.1,23.8 26.9,23.8 C26.85,23.8 26.75,23.8 26.7,23.75 C21.75,21.75 16.85,22.4 12.35,23.35 C12.1,23.4 11.8,23.25 11.75,22.95 C11.7,22.7 11.85,22.4 12.15,22.35 C16.6,21.4 21.9,20.7 27.1,22.8 Z M27.1,15.45 C27.35,15.55 27.5,15.85 27.4,16.1 C27.3,16.35 27.1,16.45 26.9,16.45 C26.85,16.45 26.75,16.45 26.7,16.4 C21.75,14.4 16.85,15.05 12.35,16 C12.1,16.05 11.8,15.9 11.75,15.6 C11.7,15.35 11.85,15.05 12.15,15 C16.6,14.05 21.9,13.35 27.1,15.45 Z M51.95,15.45 C52.2,15.55 52.35,15.85 52.25,16.1 C52.15,16.35 51.95,16.45 51.75,16.45 C51.7,16.45 51.6,16.45 51.55,16.4 C46.6,14.4 41.7,15.05 37.2,16 C36.95,16.05 36.65,15.9 36.6,15.6 C36.55,15.35 36.7,15.05 37,15 C41.45,14.05 46.75,13.35 51.95,15.45 Z" id="形状结合" fill="#FFFFFF"></path>
            </g>
        </g>
    </g>
</svg>