<?xml version="1.0" encoding="UTF-8"?>
<svg width="32px" height="32px" viewBox="0 0 32 32" version="1.1" xmlns="http://www.w3.org/2000/svg" xmlns:xlink="http://www.w3.org/1999/xlink">
    <!-- Generator: Sketch 59 (86127) - https://sketch.com -->
    <title>icon/向上备份</title>
    <desc>Created with Sketch.</desc>
    <g id="页面-2" stroke="none" stroke-width="1" fill="none" fill-rule="evenodd">
        <g id="画板" transform="translate(-206.000000, -288.000000)" fill-rule="nonzero">
            <g id="编组-10备份-2" transform="translate(175.000000, 298.000000) scale(1, -1) translate(-175.000000, -298.000000) translate(80.000000, 256.000000)">
                <g id="icon/向上备份" transform="translate(142.000000, 36.000000) scale(1, -1) rotate(90.000000) translate(-142.000000, -36.000000) translate(126.000000, 20.000000)">
                    <rect id="矩形" fill="#000000" opacity="0" x="0" y="0" width="32" height="32"></rect>
                    <path d="M26.9526562,15.0360625 L7.3164375,15.0360625 L13.6695625,8.6829375 C14.0600938,8.29240625 14.0600938,7.65925 13.6695625,7.26871875 C13.2790313,6.8781875 12.645875,6.8781875 12.2553438,7.26871875 L4.23115625,15.2929063 C3.840625,15.6834375 3.840625,16.3165938 4.23115625,16.7070937 L12.2553437,24.7313125 C12.450625,24.9265625 12.7065312,25.0241875 12.9624375,25.0241875 C13.2183438,25.0241875 13.4742813,24.9265625 13.6695313,24.7313125 C14.0600625,24.3407813 14.0600625,23.7075937 13.6695313,23.3170938 L7.31640625,16.9639375 L26.9526562,16.9639375 C27.4850312,16.9639375 27.9165937,16.532375 27.9165937,16 C27.9165937,15.467625 27.4850312,15.0360625 26.9526562,15.0360625 Z" id="路径" fill="#FFFFFF"></path>
                </g>
            </g>
        </g>
    </g>
</svg>