<?xml version="1.0" encoding="UTF-8"?>
<svg width="16px" height="16px" viewBox="0 0 16 16" version="1.1" xmlns="http://www.w3.org/2000/svg" xmlns:xlink="http://www.w3.org/1999/xlink">
    <!-- Generator: Sketch 59 (86127) - https://sketch.com -->
    <title>icon/页脚-网站链接</title>
    <desc>Created with Sketch.</desc>
    <g id="页面-2" stroke="none" stroke-width="1" fill="none" fill-rule="evenodd">
        <g id="画板" transform="translate(-136.000000, -564.000000)" fill-rule="nonzero">
            <g id="icon/页脚-网站链接" transform="translate(136.000000, 564.000000)">
                <rect id="矩形" fill="#000000" opacity="0" x="0" y="0" width="16" height="16"></rect>
                <path d="M11.4670015,5.80211762 C11.7055319,5.74192961 11.9578236,5.8179949 12.1233333,6 L12.1233333,6 L13.1866667,7.05666667 C13.596824,7.46543211 13.9199815,7.95300301 14.1366667,8.49 L14.1366667,8.49 C14.5620854,9.53683281 14.5620854,10.7065005 14.14,11.7533333 C13.6997339,12.8368518 12.8401852,13.6964005 11.7566667,14.1366667 C10.7098339,14.5587521 9.54016615,14.5587521 8.49333333,14.1366667 C7.95633634,13.9199815 7.46876544,13.596824 7.06,13.1866667 L7.06,13.1866667 L6,12.1233333 C5.8097492,11.9604067 5.72687865,11.7045877 5.78545985,11.461054 C5.84404105,11.2175202 6.03418692,11.0273744 6.27772066,10.9687932 C6.5212544,10.910212 6.77707342,10.9930825 6.94,11.1833333 L8,12.2433333 C8.75799849,13.0013318 9.86280537,13.297364 10.8982506,13.0199173 C11.9336958,12.7424706 12.7424706,11.9336958 13.0199173,10.8982506 C13.297364,9.86280537 13.0013318,8.75799849 12.2433333,8 L12.2433333,8 L11.1833333,6.94333333 C11.0007435,6.77846886 10.9237856,6.52644803 10.9831289,6.2877061 C11.0424722,6.04896416 11.2284711,5.86230564 11.4670015,5.80211762 Z M5.70569134,5.23402467 C5.93588066,5.17234563 6.18148973,5.23815639 6.35,5.40666667 L6.35,5.40666667 L10.5933333,9.66666667 C10.7717993,9.85895931 10.8208949,10.1380436 10.7187674,10.3796973 C10.6166399,10.6213511 10.3822789,10.7806412 10.12,10.7866667 C9.94974125,10.7824933 9.78753555,10.7133174 9.66666667,10.5933333 L9.66666667,10.5933333 L5.40666667,6.35 C5.23815639,6.18148973 5.17234563,5.93588066 5.23402467,5.70569134 C5.29570371,5.47550203 5.47550203,5.29570371 5.70569134,5.23402467 Z M4.24666667,1.86333333 C5.29390115,1.44332331 6.46276553,1.44332331 7.51,1.86333333 C8.04699699,2.08001852 8.53456789,2.40317597 8.94333333,2.81333333 L8.94333333,2.81333333 L10,3.87666667 C10.2265178,4.14117353 10.2112881,4.53546276 9.9650421,4.78170877 C9.71879609,5.02795479 9.32450686,5.04318449 9.06,4.81666667 L9.06,4.81666667 L8,3.75666667 C6.82823586,2.58490253 4.92843081,2.58490253 3.75666667,3.75666667 C2.58490253,4.92843081 2.58490253,6.82823586 3.75666667,8 L3.75666667,8 L4.81666667,9.05666667 C5.05580467,9.31963807 5.04657178,9.72397789 4.79567965,9.9757597 C4.54478753,10.2275415 4.14048293,10.2382056 3.87666667,10 L3.87666667,10 L2.81333333,8.94333333 C2.40317597,8.53456789 2.08001852,8.04699699 1.86333333,7.51 C1.44124793,6.46316719 1.44124793,5.29349949 1.86333333,4.24666667 C2.30359947,3.16314816 3.16314816,2.30359947 4.24666667,1.86333333 Z" id="形状结合" fill="#999"></path>
            </g>
        </g>
    </g>
</svg>
