<?xml version="1.0" encoding="UTF-8"?>
<svg width="32px" height="32px" viewBox="0 0 32 32" version="1.1" xmlns="http://www.w3.org/2000/svg" xmlns:xlink="http://www.w3.org/1999/xlink">
    <!-- Generator: Sketch 59 (86127) - https://sketch.com -->
    <title>icon/左侧-微信</title>
    <desc>Created with Sketch.</desc>
    <g id="页面-2" stroke="none" stroke-width="1" fill="none" fill-rule="evenodd">
        <g id="画板" transform="translate(-100.000000, -401.000000)" fill-rule="nonzero">
            <g id="编组-10备份" transform="translate(99.000000, 401.000000)">
                <g id="icon/左侧-微信">
                    <rect id="矩形" fill="#000000" opacity="0" x="1" y="0" width="32" height="32"></rect>
                    <path d="M13.6633485,19.8905115 C13.6633485,15.9444443 17.4337047,12.6133655 22.0845535,12.6133655 C22.2683394,12.6133655 22.4505103,12.5859106 22.6310662,12.5956006 C22.1094244,8.45185864 17.9756954,5.38951416 12.9530758,5.38951416 C7.57709627,5.38951416 3.21888363,9.0871958 3.21888363,13.6485742 C3.21888363,16.2506465 4.63749105,18.5713875 6.85422664,20.0849563 L5.64459896,23.5355444 L10.0263905,21.5274656 C10.9501649,21.7742361 11.9333709,21.9076343 12.9533988,21.9076343 C13.3028827,21.9076343 13.581953,21.8918074 13.9220699,21.8611226 C13.7105062,21.2351523 13.6633485,20.5739753 13.6633485,19.8905115 Z M16.3616742,9.51193823 C17.1216886,9.51193823 17.7376458,10.1278955 17.7376458,10.8879099 C17.7376458,11.6479243 17.1216886,12.2638816 16.3616742,12.2638816 C15.6016597,12.2638816 14.9857025,11.6479243 14.9857025,10.8879099 C14.9857025,10.1278955 15.6016597,9.51193823 16.3616742,9.51193823 L16.3616742,9.51193823 Z M9.56870223,12.2635586 C8.80868783,12.2635586 8.19273055,11.6476013 8.19273055,10.8875869 C8.19273055,10.1275725 8.80868783,9.51161523 9.56870223,9.51161523 C10.3287166,9.51161523 10.9446739,10.1275725 10.9446739,10.8875869 C10.9446739,11.6476013 10.3287166,12.2635586 9.56870223,12.2635586 L9.56870223,12.2635586 Z M22.504774,13.0513508 C27.1556229,13.0513508 30.9259791,16.2503235 30.9259791,20.1963906 C30.9259791,22.447364 29.6985865,24.4551199 27.7809471,25.764877 L28.8274608,28.7500249 L25.0367557,27.0126184 C24.2376585,27.2261201 23.3868817,27.3414304 22.504774,27.3414304 C17.8539251,27.3414304 14.0835689,24.1424578 14.0835689,20.1963906 C14.0835689,16.2503235 17.8539251,13.0513508 22.504774,13.0513508 L22.504774,13.0513508 Z M25.4327513,18.9983909 C26.0900523,18.9983909 26.6229991,18.4654441 26.6229991,17.8081431 C26.6229991,17.150842 26.0900523,16.6178953 25.4327513,16.6178953 C24.7754503,16.6178953 24.2425035,17.150842 24.2425035,17.8081431 C24.2425035,18.4654441 24.7754503,18.9983909 25.4327513,18.9983909 Z M19.5561248,18.9983909 C20.2134259,18.9983909 20.7463726,18.4654441 20.7463726,17.8081431 C20.7463726,17.150842 20.2134259,16.6178953 19.5561248,16.6178953 C18.8988238,16.6178953 18.365877,17.150842 18.365877,17.8081431 C18.365877,18.4654441 18.8988238,18.9983909 19.5561248,18.9983909 Z" id="形状" fill="#FFFFFF"></path>
                </g>
            </g>
        </g>
    </g>
</svg>
