<?xml version="1.0" encoding="UTF-8"?>
<svg width="48px" height="48px" viewBox="0 0 48 48" version="1.1" xmlns="http://www.w3.org/2000/svg" xmlns:xlink="http://www.w3.org/1999/xlink">
    <!-- Generator: Sketch 59 (86127) - https://sketch.com -->
    <title>首页-我们的实力-产品icon</title>
    <desc>Created with Sketch.</desc>
    <g id="页面-2" stroke="none" stroke-width="1" fill="none" fill-rule="evenodd">
        <g id="画板" transform="translate(-186.000000, -475.000000)" fill-rule="nonzero">
            <g id="首页-我们的实力-产品icon" transform="translate(186.000000, 475.000000)">
                <rect id="矩形" fill="#000000" opacity="0" x="0" y="0" width="48" height="48"></rect>
                <path d="M47.0625,0.1875 C47.475,0.1875 47.8125,0.525 47.8125,0.9375 L47.8125,35.0625 C47.8125,35.475 47.475,35.8125 47.0625,35.8125 L32.9995,35.8125 L32.9995,41.1745 L37.6875,41.175 C38.1,41.175 38.4375,41.5125 38.4375,41.925 L38.4375,47.0625 C38.4375,47.475 38.1,47.8125 37.6875,47.8125 L10.3125,47.8125 C9.9,47.8125 9.5625,47.475 9.5625,47.0625 L9.5625,41.925 C9.5625,41.5125 9.9,41.175 10.3125,41.175 L15.0375,41.1745 L15.0375,35.8125 L0.9375,35.8125 C0.525,35.8125 0.1875,35.475 0.1875,35.0625 L0.1875,0.9375 C0.1875,0.525 0.525,0.1875 0.9375,0.1875 L47.0625,0.1875 Z M36.9375,42.675 L11.0625,42.675 L11.0625,46.3125 L36.9375,46.3125 L36.9375,42.675 Z M31.4995,35.8125 L16.5375,35.8125 L16.5375,41.175 L31.5,41.175 L31.4995,35.8125 Z M46.3125,1.6875 L1.6875,1.6875 L1.6875,34.3125 L15.7723688,34.3126516 C15.777401,34.3125507 15.7824449,34.3125 15.7875,34.3125 L32.25,34.3125 L32.2635,34.3125 L46.3125,34.3125 L46.3125,1.6875 Z M26.2125,30.4125 C26.4375,30.4125 26.5875,30.5625 26.5875,30.7875 C26.5875,31.0125 26.4375,31.1625 26.2125,31.1625 L21.7875,31.1625 C21.5625,31.1625 21.4125,31.0125 21.4125,30.7875 C21.4125,30.5625 21.5625,30.4125 21.7875,30.4125 L26.2125,30.4125 Z M42.7125,4.7625 C42.9375,4.7625 43.0875,4.9125 43.0875,5.1375 L43.0875,26.7375 C43.0875,26.9625 42.9375,27.1125 42.7125,27.1125 L5.2875,27.1125 C5.0625,27.1125 4.9125,26.9625 4.9125,26.7375 L4.9125,5.1375 C4.9125,4.9125 5.0625,4.7625 5.2875,4.7625 L42.7125,4.7625 Z M42.3375,5.5125 L5.6625,5.5125 L5.6625,26.3625 L42.3375,26.3625 L42.3375,5.5125 Z" id="形状结合" fill="#C3141F"></path>
            </g>
        </g>
    </g>
</svg>
