<?xml version="1.0" encoding="UTF-8"?>
<svg width="48px" height="48px" viewBox="0 0 48 48" version="1.1" xmlns="http://www.w3.org/2000/svg" xmlns:xlink="http://www.w3.org/1999/xlink">
    <!-- Generator: Sketch 59 (86127) - https://sketch.com -->
    <title>首页-我们的实力-合作院校icon</title>
    <desc>Created with Sketch.</desc>
    <g id="页面-2" stroke="none" stroke-width="1" fill="none" fill-rule="evenodd">
        <g id="画板" transform="translate(-292.000000, -475.000000)" fill-rule="nonzero">
            <g id="首页-我们的实力-合作院校icon" transform="translate(292.000000, 475.000000)">
                <rect id="矩形" fill="#000000" opacity="0" x="0" y="0" width="48" height="48"></rect>
                <path d="M29.4375,-2.69295697e-12 C29.85,-2.69295697e-12 30.1875,0.3375 30.1875,0.75 L30.1875,4.5 C30.15,4.9125 29.8125,5.25 29.4,5.25 L24.7495,5.249 L24.7495,9.146 L27.9435,11.512 L47.0625,11.5125 C47.475,11.5125 47.8125,11.85 47.8125,12.2625 L47.8123653,17.6482359 C47.812455,17.6529803 47.8125,17.6577351 47.8125,17.6625 L47.8125,47.1375 C47.8125,47.5125 47.475,47.85 47.0625,47.85 L0.9375,47.85 C0.525,47.85 0.1875,47.5125 0.1875,47.1 L0.1875,12.2625 C0.1875,11.85 0.525,11.5125 0.9375,11.5125 L20.0555,11.512 L23.2495,9.146 L23.25,0.75 C23.25,0.3375 23.5875,-2.71782596e-12 24,-2.71782596e-12 L29.4375,-2.69295697e-12 Z M46.3125,18.037 L35.6388315,18.038205 C35.623441,18.0634755 35.6063397,18.0882775 35.5875,18.1125 C35.5343067,18.1789916 35.4716817,18.2360514 35.4012973,18.2820072 L35.3995,46.387 L46.3125,46.3875 L46.3125,18.037 Z M12.3615,18.037 L1.6875,18.037 L1.6875,46.3875 L12.6365,46.387 L12.63656,18.3132622 C12.5534618,18.2630756 12.4772727,18.1957792 12.4125,18.1125 L12.3615,18.037 Z M34.1965,18.037 L13.7655,18.037 L13.4625,18.2625 L13.3865,18.312 L13.3865,46.387 L16.2365,46.387 L16.2375,24.75 C16.2375,22.9125 17.7375,21.4125 19.575,21.4125 C21.4125,21.4125 22.9125,22.9125 22.9125,24.75 L22.9115,46.387 L25.1245,46.387 L25.125,24.75 C25.125,22.9125 26.625,21.4125 28.4625,21.4125 C30.3,21.4125 31.8,22.9125 31.8,24.75 L31.7995,46.387 L34.6495,46.387 L34.65,18.3513889 C34.6,18.3291667 34.55,18.3 34.5,18.2625 L34.1965,18.037 Z M19.5375,22.1625 C18.1125,22.1625 16.95,23.325 16.95,24.75 L16.9495,46.387 L22.1245,46.387 L22.125,24.75 C22.125,23.325 20.9625,22.1625 19.5375,22.1625 Z M28.425,22.1625 C27,22.1625 25.875,23.325 25.875,24.75 L25.8745,46.387 L31.0115,46.387 L31.0125,24.75 C31.0125,23.325 29.85,22.1625 28.425,22.1625 Z M8.8875,23.25 C9.1125,23.25 9.2625,23.4 9.2625,23.625 L9.2625,37.175 C9.2625,37.3625 9.075,37.55 8.8875,37.55 L5.1375,37.55 C4.9125,37.55 4.7625,37.4 4.7625,37.175 L4.7625,23.625 C4.7625,23.4 4.9125,23.25 5.1375,23.25 L8.8875,23.25 Z M42.75,23.25 C42.975,23.25 43.125,23.4 43.125,23.625 L43.125,37.175 C43.125,37.3625 42.975,37.55 42.75,37.55 L39,37.55 C38.775,37.55 38.625,37.4 38.625,37.175 L38.625,23.625 C38.625,23.4 38.775,23.25 39,23.25 L42.75,23.25 Z M8.475,24 L5.475,24 L5.475,36.8 L8.475,36.8 L8.475,24 Z M42.375,24 L39.375,24 L39.375,36.8 L42.375,36.8 L42.375,24 Z M18.0295,13.012 L1.6875,13.0125 L1.6875,17.287 L12.3617378,17.28656 C12.4119244,17.2034618 12.4792208,17.1272727 12.5625,17.0625 L18.0295,13.012 Z M46.3125,13.0125 L29.9685,13.012 L35.4375,17.0625 C35.5207792,17.1272727 35.5880756,17.2034618 35.6382622,17.28656 L46.3115,17.287 L46.3125,13.0125 Z M24,10.4625 L14.7785,17.287 L33.1865,17.287 L27.2644403,12.8893153 C27.2393796,12.8728102 27.2153549,12.8548457 27.1924897,12.8355453 L24,10.4625 Z M28.6875,1.5 L24.75,1.5 L24.75,3.75 L28.6875,3.75 L28.6875,1.5 Z" id="形状结合" fill="#C3141F"></path>
            </g>
        </g>
    </g>
</svg>