<?xml version="1.0" encoding="UTF-8"?>
<svg width="64px" height="64px" viewBox="0 0 64 64" version="1.1" xmlns="http://www.w3.org/2000/svg" xmlns:xlink="http://www.w3.org/1999/xlink">
    <!-- Generator: Sketch 59 (86127) - https://sketch.com -->
    <title>icon/内页-教育数字化</title>
    <desc>Created with Sketch.</desc>
    <g id="页面-2" stroke="none" stroke-width="1" fill="none" fill-rule="evenodd">
        <g id="画板" transform="translate(-292.000000, -692.000000)" fill-rule="nonzero">
            <g id="icon/内页-教育数字化" transform="translate(292.000000, 692.000000)">
                <rect id="矩形" fill="#000000" opacity="0" x="0" y="0" width="64" height="64"></rect>
                <path d="M32,0.25 C37.2862069,0.25 42.2758654,1.55025065 46.6657882,3.84756466 C54.1205296,-0.0871068866 59.4662215,-0.782552152 62.1,1.9 C64.7337785,4.53377848 64.0847144,9.87947037 60.1528077,17.3337389 C62.4497493,21.7241346 63.75,26.7137931 63.75,32 C63.75,49.5 49.5,63.75 32,63.75 C26.7133908,63.75 21.7233751,62.4495514 17.3332095,60.1519108 C13.0516601,62.4217203 9.19183769,63.75 6.2,63.75 C4.4,63.75 2.9,63.25 1.8,62.2 C-0.850981932,59.5490181 -0.176095146,54.1505794 3.82466036,46.6199208 C1.54116286,42.2409266 0.25,37.2677011 0.25,32 C0.25,19.842931 7.12696047,9.25429165 17.1930999,3.92186334 C17.2259278,3.89675493 17.2623635,3.87673252 17.3017618,3.86310627 C21.6998336,1.5565914 26.7009195,0.25 32,0.25 Z M5.00411021,48.6910682 L4.87979284,48.9434433 C2.09010631,54.6674383 1.43055556,59.0305556 3.2,60.8 C5.02232632,62.6223263 9.42100396,61.9774687 15.3452286,59.018457 C11.1526246,56.423625 7.60469697,52.8803549 5.00411021,48.6910682 Z M59.9589933,21.8313366 L59.7155811,21.9421229 C58.8539964,22.3165218 57.9253903,22.5915055 56.9463127,22.7587992 C56.2446802,23.8344532 55.4978334,24.9261744 54.708506,26.02863 C54.8272059,26.1136029 54.9636029,26.1818015 55.1,26.25 C55.55,26.55 56.05,26.85 56.35,27.35 C56.5,27.65 56.6,27.9 56.7,28.2 C56.75,28.35 56.8,28.45 56.85,28.6 C56.95,28.85 57.1,29.1 57.25,29.35 C57.4,29.65 57.6,29.95 57.75,30.3 C58.05,31.05 58,32.1 57.2,32.6 C57.05,32.7 56.8,32.7 56.65,32.6 C55.8,32 54.75,31.65 53.7,31.55 C53.9,32.05 54.05,32.6 53.9,33.15 C53.75,33.7 53.25,34.2 52.65,34.35 C52.15,34.45 51.7,34.35 51.4,34 C51.15,33.7 51.1,33.4 51,33.1 C50.95,32.9 50.9,32.7 50.85,32.65 C50.8,32.65 50.7,32.6 50.65,32.6 C50.45,32.55 50.2,32.55 49.95,32.35 L49.8760924,32.2743315 C48.9776732,33.3565463 48.0457595,34.4413812 47.0832484,35.5250938 C47.5077709,36.3404973 47.5828537,37.3458042 47.55,38.2 C47.55,38.45 47.55,38.75 47.6,38.85 C47.7,39 47.95,39.05 48.2,39.1 C48.3,39.15 48.45,39.15 48.55,39.2 C49.25,39.45 49.8,40.05 50.1,40.8 C50.4,41.55 50.35,42.35 49.95,43 L49.8,43.15 C49.5,43.4 49.15,43.5 48.75,43.45 C47.9,43.35 47.15,42.5 46.8,42 C46.45,41.55 45.85,41.15 45.5,41.15 C45.4,41.15 45.35,41.15 45.3,41.2 L44.55,43.85 C44.5,44 44.4,44.15 44.2,44.2 C44.05,44.25 43.85,44.2 43.75,44.1 L42.75,43.3 C42.1,45.6 41.95,48.05 42.3,50.4 C42.3,50.55 42.25,50.75 42.15,50.85 C41.95,50.9 41.85,50.95 41.75,50.95 L41.65,50.95 C40,50.55 38.6,49.25 37.75,47.4 C37.4855464,46.8304075 37.287304,46.2359858 37.1317022,45.6302039 C31.2902794,50.9751773 25.0863795,55.6912259 19.4534798,58.971179 C23.2679975,60.7538866 27.5202105,61.75 32,61.75 C48.4,61.75 61.75,48.4 61.75,32 C61.75,28.4305662 61.1175995,25.0056134 59.9589933,21.8313366 Z M32,2.25 C27.3305446,2.25 22.9083439,3.33224612 18.9711391,5.25899719 C19.4271451,5.40163247 19.8771818,5.60825 20.25,5.95 C21,6.6 21.4,7.9 20.7,8.75 C20.5,9 20.25,9.15 20.05,9.3 C19.85,9.45 19.65,9.6 19.55,9.75 C19.45,10 19.55,10.4 19.7,10.75 C20.15,11.95 20.6,13.15 21.1,14.35 C21.15,14.5 21.15,14.7 21.05,14.8 C20.95,14.95 20.8,15 20.65,15 L18.2,15 L18.05,16.2 C18.05,16.4 17.9,16.55 17.7,16.6 L12.2,18.3 C12.15,18.75 11.8,19.15 11.5,19.5 C11.25,19.8 11,20.05 11.05,20.25 C11.09,20.37 11.194,20.49 11.2852,20.5844 L13.25,22.55 C13.45,22.75 13.45,23.05 13.25,23.25 C12.6,24 11.55,24.35 10.55,24.2 C10.4,24.8 10.75,25.5 11.25,25.95 C11.65,26.3 12.15,26.6 12.7,26.85 C13.05,27.05 13.45,27.25 13.8,27.5 C14.75,28.1 15.65,29.25 15.4,30.5 C15.3,31 15.05,31.4 14.85,31.75 L13,34.9 C12.75,35.3 12.5,35.7 12.5,36.15 C12.5,36.4 12.6,36.7 12.65,37 C12.7,37.15 12.75,37.25 12.75,37.4 C13.1,38.9 12.7,40.35 12.3,41.8 C11.9,43.3 11.5,44.7 12,46 C12.1,46.3 12.25,46.55 12.45,46.85 C12.8,47.5 13.2,48.15 13.15,48.95 C13.15,49.2 13.1,49.4 13.05,49.65 C13,49.85 12.95,50.05 12.95,50.25 C12.95,50.7 13.25,51.1 13.6,51.5 C13.7,51.6 13.75,51.7 13.85,51.8 C14.5,52.75 14.6,53.7 14.1,54.35 C14.15,54.45 14,54.55 13.85,54.55 C13.7,54.55 13.6,54.5 13.5,54.4 C11.15,52.1 9,49.6 7.05,46.9 L6.77965,46.54125 C6.282725,45.888125 5.7752125,45.2728125 5.19888125,44.9032812 L5.3669983,45.2472783 C8.02968364,50.5769972 12.2460297,55.001626 17.4181163,57.9232442 C22.9799598,54.8273439 29.652064,49.9179998 36.6973343,43.3016835 C36.6813565,43.1832145 36.6655275,43.0664565 36.65,42.95 C34.3,43.35 31.45,42.3 30.6,39.85 C30.45,39.45 30.35,39 30.35,38.55 L30.35,38.1 C30.35,37.8 30.35,37.55 30.3,37.35 C30.1,36.4 28.95,35.95 28.45,35.75 L27.55,35.45 C26.85,35.25 26.15,35.05 25.55,34.65 C24.25,33.85 23.5,32.4 22.95,31.25 C22.8,30.95 22.55,30.45 22.65,29.95 C22.8,29.3 23.35,28.95 23.85,28.65 C24.25,28.4 24.5,28.25 24.55,28.05 C24.55,27.9666667 24.4805556,27.8138889 24.399537,27.649537 L24.3,27.45 C23.6,26.1 23.45,24.55 23.85,23.1 C23.9,22.95 24,22.85 24.1,22.8 C24.9,22.4 25.5,21.7 25.8,20.85 C25.9,20.6 26.1,20.5 26.35,20.55 C27.35,20.7 28.4,20.35 29.05,19.6 C29.1,19.55 29.2,19.5 29.25,19.45 C29.9,19.25 30.3,18.5 30.25,17.85 C30.25,17.7 30.3,17.55 30.4,17.45 C31.2,16.65 32.25,17.2 33.1,17.65 C33.85,18.05 34.2,18.2 34.45,18.05 L34.55,16.05 C34.55,15.8 34.8,15.55 35.05,15.55 L37.45,15.55 C37.65,15.55 37.85,15.7 37.9,15.9 C38.4,17.2 40.1,17.7 41.7,18 L45,18.6 C45.55,16.35 45.9,14.05 46.15,11.75 C46.2,11 46.3,10.2 46.75,9.5 C46.85,9.4 46.95,9.25 47.05,9.15 C47.15,9 47.25,8.9 47.35,8.75 C47.45,8.5 47.5,8.2 47.5,7.9 C47.5,7.7 47.55,7.55 47.55,7.35 C47.5890756,7.15462185 47.6552962,6.95585058 47.7460101,6.76959679 C47.3286002,6.50821605 46.9033685,6.25624844 46.4715385,6.01473307 C46.2056513,5.99360961 45.9583313,5.86920528 45.7922339,5.64909877 C41.6681925,3.47821568 36.974398,2.25 32,2.25 Z M17.7264324,5.90608182 L17.5304704,6.0136096 C12.3051548,8.93551159 8.04578162,13.387761 5.36401625,18.7586923 C5.67943828,19.6790715 6.06379467,20.4334494 6.7,20.9 C6.9,21.05 7.3,21.3 7.25,21.8 C7.25,22.05 7.1,22.3 6.8,22.5 C6.45,22.75 6.1,22.9 5.75,23.05 C5.45,23.15 5.2,23.3 4.95,23.45 C4.75,23.7 4.5,24.1 4.4,24.5 C4.4,24.6 4.35,24.7 4.35,24.8 C4.35,24.95 4.3,25.1 4.25,25.25 C4.02865854,25.9878049 3.42626785,26.5623029 2.70388648,26.8128428 C2.40539485,28.4967389 2.25,30.2306183 2.25,32 C2.25,36.11312 3.08972354,40.034393 4.60668318,43.6013317 C6.13748815,43.8982086 7.23496544,45.4189516 7.9,46.35 C9.6,48.7 11.45,50.95 13.5,53 C13.45,52.8 13.3,52.6 13.2,52.4 C13.15,52.3 13.05,52.2 13,52.1 C12.6,51.6 12.2,51 12.15,50.3 C12.15,50 12.2,49.7 12.25,49.45 C12.3,49.25 12.35,49.1 12.35,48.95 C12.35,48.45 12.1,47.9 11.75,47.4 C11.55,47.1 11.4,46.8 11.25,46.45 C10.6,44.85 11.05,43.2 11.5,41.6 C11.9,40.25 12.25,38.95 11.95,37.7 C11.9,37.6 11.9,37.45 11.85,37.35 C11.75,37 11.65,36.6 11.65,36.2 C11.65,35.5 12,34.95 12.3,34.5 L14.15,31.35 C14.35,31.05 14.5,30.75 14.55,30.4 C14.7,29.6 14,28.85 13.35,28.4 C13.05,28.2 12.7,28 12.35,27.85 C11.8,27.55 11.2,27.25 10.7,26.8 C9.8,26 9.2,24.55 9.95,23.45 C10.05,23.25 10.3,23.2 10.5,23.25 C11.05,23.4 11.75,23.3 12.25,22.95 L10.7,21.4 C10.5,21.2 10.2,20.9 10.1,20.45 C9.95,19.75 10.4,19.25 10.75,18.8 C11.05,18.45 11.25,18.2 11.2,18.05 C11.1,17.8 11.25,17.5 11.55,17.45 L17.1,15.7 L17.25,14.4 C17.3,14.15 17.5,13.95 17.75,13.95 L20,14 C19.6,13.05 19.25,12.05 18.85,11.1 C18.65,10.55 18.45,9.9 18.75,9.3 C18.95,8.9 19.25,8.65 19.55,8.45 C19.7,8.35 19.9,8.2 20,8.1 C20.3,7.7 20.1,7 19.65,6.65 C19.1567568,6.20608108 18.3715668,6.05410884 17.7264324,5.90608182 Z M46.2523834,36.4519245 L45.7537076,37.0000138 C44.3579985,38.5257852 42.9040541,40.0459459 41.4,41.55 C40.2823306,42.6676694 39.1411979,43.7682746 37.9839708,44.8454319 C38.1463195,45.5555467 38.3577209,46.2479928 38.65,46.9 C39.25,48.15 40.15,49.15 41.15,49.65 C40.9,47.15 41.15,44.6 41.95,42.2 C42,42.05 42.15,41.9 42.3,41.9 C42.45,41.85 42.65,41.9 42.75,42 L43.75,42.8 L44.3,40.75 C44.3,40.7 44.35,40.65 44.4,40.6 C44.65,40.25 45,40.1 45.45,40.1 C46.25,40.1 47.05,40.75 47.55,41.35 C48,41.95 48.5,42.35 48.85,42.4 C48.95,42.4 49,42.4 49.05,42.35 C49.2,42 49.25,41.5 49.05,41.1 C48.9,40.65 48.55,40.25 48.1,40.1 C48,40.05 47.9,40.05 47.8,40 C47.4,39.9 46.95,39.75 46.65,39.35 C46.35,38.95 46.4,38.45 46.4,38.1 C46.4267236,37.6456989 46.4105982,37.0200018 46.2523834,36.4519245 Z M48.5490595,7.29096279 L48.5220165,7.38552812 C48.512963,7.42283951 48.5055556,7.46111111 48.5,7.5 C48.5,7.65 48.45,7.8 48.45,7.95 C48.4,8.35 48.4,8.75 48.2,9.2 C48.1,9.45 47.9,9.6 47.8,9.75 C47.7,9.85 47.65,9.95 47.6,10 C47.3,10.45 47.2,11.1 47.15,11.75 C46.9,14.3 46.5,16.8 45.85,19.25 C45.8,19.5 45.55,19.65 45.25,19.6 L41.5,18.9 C39.75,18.55 37.9,18 37.1,16.5 L35.5,16.5 L35.4,18.25 C35.4,18.35 35.35,18.45 35.3,18.55 C34.55,19.45 33.45,18.9 32.6,18.45 C32,18.15 31.5,17.9 31.25,18 C31.25,18.95 30.6,19.9 29.7,20.3 C28.9,21.15 27.75,21.6 26.6,21.55 C26.2,22.4 25.55,23.1 24.75,23.55 C24.5,24.7 24.65,25.95 25.15,26.95 L25.2,27 C25.35,27.25 25.5,27.6 25.5,28 C25.45,28.75 24.85,29.15 24.35,29.45 C24,29.65 23.7,29.85 23.65,30.1 C23.6,30.25 23.75,30.5 23.85,30.75 C24.5,32.1 25.1,33.15 26.1,33.75 C26.6,34.05 27.25,34.25 27.85,34.45 C28.2,34.55 28.5,34.65 28.8,34.75 C29.6,35.05 30.95,35.7 31.25,37.05 C31.35,37.4 31.35,37.75 31.35,38.05 L31.35,38.45 C31.35,38.8 31.45,39.15 31.55,39.45 C32.3,41.55 35,42.35 36.95,41.8 C37.1,41.75 37.25,41.8 37.35,41.85 C37.45,41.95 37.55,42.05 37.55,42.2 L37.5835095,42.4622973 C38.3849715,41.6966587 39.1908258,40.9091742 40,40.1 C41.6786057,38.4213943 43.2946881,36.7219475 44.8357885,35.0176067 C44.6982901,34.9763964 44.5527928,34.9381982 44.4,34.9 C43.7,34.75 42.95,34.55 42.5,33.85 C42.15,33.25 42.15,32.55 42.2,32.05 C42.25,31.5 42.45,30.75 42.95,30.4 C43.2,30.2 43.55,30.15 43.85,30.25 C44.2,30.35 44.45,30.6 44.6,30.8 C45.4728299,31.8473958 46.2237666,32.4559765 46.8868557,32.6938327 C47.1249577,32.4190333 47.3595948,32.14452 47.5920898,31.8701341 C47.446758,31.2278218 47.1554622,30.6068277 46.75,30.1 C46.65,30 46.65,29.85 46.65,29.7 C46.65,29.55 46.75,29.45 46.85,29.35 C47.5,28.9 48.35,28.85 49.15,29.2 C49.3080815,29.2691607 49.4544491,29.35394 49.5879454,29.4512516 C50.6884821,28.0829004 51.7305652,26.7225124 52.708453,25.378624 C52.4346487,25.0774713 52.1470663,24.8042517 51.8,24.65 C51.45,24.45 50.9,24.5 50.55,24.75 C50.3,24.9 50.35,25.1 50.35,25.15 C50.35,25.3 50.3,25.45 50.2,25.55 C50.1,25.65 49.95,25.7 49.8,25.7 C48.65,25.55 47.65,24.6 47.4,23.5 C47.35,23.35 47.4,23.25 47.45,23.1 C47.5,22.95 47.65,22.9 47.75,22.9 C48,22.85 48.25,22.65 48.45,22.4 C48.65,22.15 48.65,21.8 48.6,21.55 C48.55,21.35 48.6,21.15 48.75,21.05 C48.9,20.9 49.1,20.9 49.25,20.95 C50.95,21.6 52.8,21.95 54.6,21.95 C54.7658217,21.95 54.9302856,21.9470127 55.0933516,21.9410781 C56.1277557,20.3696511 57.0614174,18.8334716 57.8832907,17.3458952 C55.5907353,13.3153947 52.3848026,9.86888116 48.5490595,7.29096279 Z M43.7,31.2 C43.6,31.2 43.4,31.6 43.35,32.1 C43.3,32.6 43.3,33 43.5,33.3 C43.75,33.65 44.2,33.8 44.8,33.95 C45.0631944,34.0084877 45.3263889,34.0840793 45.5795796,34.1867788 C45.7979283,33.9425417 46.0149137,33.6966588 46.2302619,33.4507758 C45.3447174,32.9898981 44.5621839,32.1734901 43.95,31.45 L43.7,31.2 Z M54.147,26.8066239 L53.8439441,27.2174689 C52.7991683,28.6323639 51.6872304,30.0622459 50.5149279,31.4983345 C50.52048,31.54456 50.532,31.582 50.55,31.6 C50.55,31.6 50.65,31.6 50.75,31.65 C50.9,31.65 51.1,31.7 51.3,31.8 C51.75,32.05 51.9,32.55 51.95,32.9 C52,33.1 52.05,33.3 52.1,33.4 C52.1,33.4 52.15,33.5 52.35,33.45 C52.6,33.4 52.8,33.2 52.85,33 C52.95,32.5 52.7,31.95 52.35,31.35 C52.25,31.2 52.25,31 52.35,30.85 C52.45,30.7 52.6,30.6 52.75,30.6 C54.15,30.5 55.55,30.85 56.75,31.55 C56.85,31.3 56.8,30.95 56.7,30.65 C56.6,30.4 56.45,30.15 56.3,29.85 C56.15,29.55 55.95,29.3 55.85,28.95 L55.7,28.5 C55.65,28.25 55.55,28.05 55.45,27.85 C55.25,27.55 54.9,27.3 54.5,27.05 C54.3823333,26.96175 54.2646667,26.8908068 54.147,26.8066239 Z M48,30 C48.1631809,30.281858 48.3043552,30.5769199 48.4209112,30.8825742 C48.6019536,30.6633384 48.782926,30.4435997 48.9624518,30.2240289 C48.9094895,30.1952277 48.8552212,30.170708 48.8,30.15 C48.55,30.05 48.25,29.95 48,30 Z M4.75636326,20.0524398 L4.5921875,20.4328125 C3.89989922,22.0663259 3.34957439,23.7739501 2.95678976,25.5401085 C3.11541675,25.3882171 3.2372449,25.2039541 3.3,25 C3.35,24.9 3.35,24.75 3.35,24.65 C3.35,24.55 3.4,24.4 3.4,24.3 C3.55,23.6 3.95,23 4.5,22.65 C4.8,22.45 5.15,22.3 5.45,22.15 C5.7,22.05 5.95,21.95 6.15,21.8 C5.48901256,21.3689212 5.05927886,20.7231068 4.75636326,20.0524398 Z M49.65,22.15 C49.6,22.4 49.5,22.7 49.35,22.95 C49.15,23.3 48.85,23.55 48.55,23.75 C48.75,24.15 49.1,24.45 49.5,24.65 C49.6,24.4 49.8,24.2 50.05,24 C50.7,23.55 51.65,23.5 52.35,23.85 C52.7218563,24.0359281 53.016892,24.2986769 53.2827174,24.5787333 C53.6742222,24.0311669 54.0526847,23.4873443 54.4197414,22.9471344 L54.6,22.95 C52.9,22.95 51.25,22.7 49.65,22.15 Z M58.9753369,19.4613119 L58.8385505,19.6965441 C58.4780658,20.3134857 58.1005019,20.9370763 57.7065353,21.5664422 C58.3716015,21.3956031 59.0020943,21.1672382 59.5952708,20.8863711 C59.4006722,20.4043337 59.1939257,19.9295294 58.9753369,19.4613119 Z M48.8434433,4.97979284 L48.7361426,5.03214316 C52.8785239,7.61319037 56.3868096,11.1214761 58.9678568,15.2638574 C61.801617,9.48679577 62.4804214,5.0804214 60.7,3.3 C58.9305556,1.53055556 54.5674383,2.19010631 48.8434433,4.97979284 Z" id="形状结合" fill="#FFFFFF"></path>
            </g>
        </g>
    </g>
</svg>