<?xml version="1.0" encoding="UTF-8"?>
<svg width="64px" height="64px" viewBox="0 0 64 64" version="1.1" xmlns="http://www.w3.org/2000/svg" xmlns:xlink="http://www.w3.org/1999/xlink">
    <!-- Generator: Sketch 59 (86127) - https://sketch.com -->
    <title>icon/内页-职业本科</title>
    <desc>Created with Sketch.</desc>
    <g id="页面-2" stroke="none" stroke-width="1" fill="none" fill-rule="evenodd">
        <g id="画板" transform="translate(-72.000000, -692.000000)" fill-rule="nonzero">
            <g id="icon/内页-职业本科" transform="translate(72.000000, 692.000000)">
                <rect id="矩形" fill="#000000" opacity="0" x="0" y="0" width="64" height="64"></rect>
                <path d="M32.55,0.4 L63.3,20.85 C63.6,21.05 63.75,21.35 63.75,21.7 L63.75,28.15 C63.75,28.7 63.3,29.15 62.75,29.15 L59.7,29.15 L59.7,55.3 L62.75,55.3 C63.3,55.3 63.75,55.75 63.75,56.3 L63.75,62.75 C63.75,63.3 63.3,63.75 62.75,63.75 L1.25,63.75 C0.7,63.75 0.25,63.3 0.25,62.75 L0.25,56.3 C0.25,55.75 0.7,55.3 1.25,55.3 L4.3,55.3 L4.3,29.15 L1.25,29.15 C0.7,29.15 0.25,28.7 0.25,28.15 L0.25,21.7 C0.25,21.35 0.4,21.05 0.7,20.85 L31.45,0.4 C31.8,0.2 32.2,0.2 32.55,0.4 Z M61.75,57.3 L2.25,57.3 L2.25,61.75 L61.75,61.75 L61.75,57.3 Z M57.7,28.65 L6.3,28.65 L6.3,55.3 L12.799,55.3 L12.8,43.9 C12.8,39.7 16.2,36.3 20.4,36.3 C24.6,36.3 28,39.7 28,43.9 L28,55.3 L36,55.3 L36,43.9 C36,39.7 39.4,36.3 43.6,36.3 C47.8,36.3 51.2,39.7 51.2,43.9 L51.2,55.3 L57.7,55.3 L57.7,28.65 Z M20.4,37.3 C16.75,37.3 13.8,40.25 13.8,43.9 L13.799,55.3 L27,55.3 L27,43.9 C27,40.25 24.05,37.3 20.4,37.3 Z M43.6,37.3 C39.95,37.3 37,40.25 37,43.9 L37,55.3 L50.2,55.3 L50.2,43.9 C50.2,40.25 47.25,37.3 43.6,37.3 Z M61.673,22.199 L2.252,22.199 L2.25,22.2 L2.25,27.1 L5.3,27.1 C5.68840206,27.1 6.02693432,27.3244141 6.19233609,27.6499817 L57.8349293,27.6499011 C58.0085018,27.3516233 58.3318483,27.15 58.7,27.15 L61.75,27.15 L61.75,22.25 L61.673,22.199 Z M32,2.45 L3.758,21.199 L60.171,21.199 L32,2.45 Z M32,8.3 C34.2,8.3 36,10.05 36,12.2 C36,14.3 34.2,16.1 32,16.1 C29.8,16.1 28,14.35 28,12.2 C28,10.05 29.8,8.3 32,8.3 Z M32,9.25 C30.35,9.25 29,10.55 29,12.15 C29,13.75 30.35,15.05 32,15.05 C33.65,15.05 35,13.75 35,12.15 C35,10.55 33.65,9.25 32,9.25 Z" id="形状结合" fill="#FFFFFF"></path>
            </g>
        </g>
    </g>
</svg>