<?xml version="1.0" encoding="UTF-8"?>
<svg width="48px" height="48px" viewBox="0 0 48 48" version="1.1" xmlns="http://www.w3.org/2000/svg" xmlns:xlink="http://www.w3.org/1999/xlink">
    <!-- Generator: Sketch 59 (86127) - https://sketch.com -->
    <title>首页-我们的实力-icon-经验</title>
    <desc>Created with Sketch.</desc>
    <g id="页面-2" stroke="none" stroke-width="1" fill="none" fill-rule="evenodd">
        <g id="画板" transform="translate(-80.000000, -475.000000)" fill-rule="nonzero">
            <g id="首页-我们的实力-icon-经验" transform="translate(80.000000, 475.000000)">
                <rect id="矩形" fill="#000000" opacity="0" x="0" y="0" width="48" height="48"></rect>
                <path d="M37.875,0.1875 C38.2875,0.1875 38.625,0.525 38.625,0.9375 L38.6239149,2.12379963 C39.5693201,1.548576 40.654878,1.2375 41.775,1.2375 C45.1125,1.2375 47.85,3.975 47.85,7.3125 C47.85,11.8125 39.4125,20.025 38.4375,20.9625 C38.3146205,21.0116518 38.1917411,21.0608036 38.0688616,21.088845 C36.8260893,25.0212254 33.6091863,28.0923118 29.5868556,29.11167 L29.5865,33.7125 L33.375,33.7125 C33.75,33.7125 34.05,33.975 34.125,34.35 L36.225,46.95 C36.2625,47.175 36.1875,47.4 36.075,47.55 C35.9625,47.7 35.7,47.8125 35.475,47.8125 L12.525,47.8125 C12.3,47.8125 12.1125,47.7 11.9625,47.55 C11.8125,47.4 11.775,47.175 11.8125,46.95 L13.875,34.35 C13.95,33.975 14.25,33.7125 14.625,33.7125 L18.4115,33.7125 L18.412149,29.1114177 C14.3889172,28.0914589 11.1716237,25.0188151 9.92917226,21.0836428 C9.81100085,21.0509037 9.69756757,20.9850676 9.6,20.8875 C8.625,19.9875 0.1875,11.775 0.1875,7.2375 C0.1875,3.9 2.925,1.1625 6.2625,1.1625 C7.38939851,1.1625 8.44940515,1.46351339 9.37551517,2.02087034 L9.375,0.9375 C9.375,0.525 9.7125,0.1875 10.125,0.1875 L37.875,0.1875 Z M32.7375,35.2125 L15.225,35.2125 L13.3875,46.3125 L34.575,46.3125 L32.7375,35.2125 Z M29.8125,37.6875 C30,37.6875 30.15,37.8 30.1875,37.9875 L31.125,43.3875 C31.1625,43.5 31.125,43.6125 31.05,43.6875 C30.975,43.8 30.8625,43.8375 30.75,43.8375 L17.25,43.8375 C17.1375,43.8375 17.025,43.8 16.95,43.6875 C16.875,43.6125 16.8375,43.5 16.875,43.3875 L17.8125,37.9875 C17.85,37.8 18,37.6875 18.1875,37.6875 L29.8125,37.6875 Z M29.475,38.4375 L18.4875,38.4375 L17.6625,43.0875 L30.3,43.0875 L29.475,38.4375 Z M28.0875,29.475 L19.9125,29.475 L19.9125,33.7125 L28.0875,33.7125 L28.0875,29.475 Z M37.125,1.6875 L10.875,1.6875 L10.875,17.475 C10.875,23.25 15.5625,27.975 21.3375,27.975 L26.6625,27.975 C32.4375,27.975 37.125,23.25 37.125,17.475 L37.125,1.6875 Z M34.125,4.3125 C34.35,4.3125 34.5,4.4625 34.5,4.6875 L34.5,17.475 C34.5,21.825 30.975,25.35 26.6625,25.35 C26.4375,25.35 26.2875,25.2 26.2875,24.975 C26.2875,24.75 26.4375,24.6 26.6625,24.6 C30.5625,24.6 33.75,21.4125 33.75,17.5125 L33.75,4.6875 C33.75,4.4625 33.9,4.3125 34.125,4.3125 Z M41.775,2.7 C40.5723204,2.7 39.4697404,3.1337646 38.6246294,3.96981991 L38.625,17.475 C38.625,17.8739985 38.6054015,18.2686112 38.567116,18.6579104 C41.4768027,15.6712468 46.35,10.1351068 46.35,7.275 C46.35,4.7625 44.2875,2.7 41.775,2.7 Z M6.2625,2.625 C3.75,2.6625 1.6875,4.725 1.6875,7.2375 C1.6875,10.0546529 6.49677394,15.5840126 9.42740692,18.5863101 C9.39226249,18.2200684 9.375,17.8494657 9.375,17.475 L9.374856,3.86501653 C8.53035067,3.07847769 7.41262097,2.625 6.2625,2.625 Z" id="形状结合" fill="#C3141F"></path>
            </g>
        </g>
    </g>
</svg>
