<?xml version="1.0" encoding="UTF-8"?>
<svg width="48px" height="48px" viewBox="0 0 48 48" version="1.1" xmlns="http://www.w3.org/2000/svg" xmlns:xlink="http://www.w3.org/1999/xlink">
    <!-- Generator: Sketch 59 (86127) - https://sketch.com -->
    <title>首页-我们的实力-直属教育中心icon</title>
    <desc>Created with Sketch.</desc>
    <g id="页面-2" stroke="none" stroke-width="1" fill="none" fill-rule="evenodd">
        <g id="画板" transform="translate(-398.000000, -474.000000)" fill-rule="nonzero">
            <g id="首页-我们的实力-直属教育中心icon" transform="translate(398.000000, 474.000000)">
                <rect id="矩形" fill="#000000" opacity="0" x="0" y="0" width="48" height="48"></rect>
                <path d="M34.125,0.1875 C34.5375,0.1875 34.875,0.525 34.875,0.9375 L34.8745,8.6615 L47.0625,8.6625 C47.475,8.6625 47.8125,9 47.8125,9.4125 L47.8125,28.2375 C47.8125,28.65 47.475,28.9875 47.0625,28.9875 L46.3875,28.9865 L46.3875,47.0625 C46.425,47.475 46.0875,47.8125 45.675,47.8125 L2.325,47.8125 C1.9125,47.8125 1.575,47.475 1.575,47.0625 L1.5745,28.9865 L0.9375,28.9875 C0.525,28.9875 0.1875,28.65 0.1875,28.2375 L0.1875,9.4125 C0.1875,9 0.525,8.6625 0.9375,8.6625 L13.1245,8.6615 L13.125,0.9375 C13.125,0.525 13.4625,0.1875 13.875,0.1875 L34.125,0.1875 Z M40.5,31.65 C40.5,31.8375 40.3125,32.025 40.125,32.025 L35.55,32.025 C35.325,32.025 35.175,31.875 35.175,31.65 L35.1745,28.6125 L12.8245,28.6125 L12.825,31.65 C12.825,31.8375 12.675,32.025 12.45,32.025 L7.875,32.025 C7.65,32.025 7.5,31.875 7.5,31.65 L7.4995,28.6115 L3.0745,28.6115 L3.075,46.3125 L44.8875,46.3125 L44.8875,28.6115 L40.4995,28.6115 L40.5,31.65 Z M12.075,25.2375 L8.25,25.2375 L8.25,31.275 L12.075,31.275 L12.075,25.2375 Z M39.75,25.2375 L35.925,25.2375 L35.925,31.275 L39.75,31.275 L39.75,25.2375 Z M46.3125,10.1625 L1.6875,10.1625 L1.6875,27.4875 L2.325,27.4875 L2.325,27.4875 C2.60079942,27.4875 2.84307142,27.6383734 2.97335797,27.861662 L7.4995,27.8615 L7.5,24.8625 C7.5,24.6375 7.65,24.4875 7.875,24.4875 L12.45,24.4875 C12.675,24.4875 12.825,24.6375 12.825,24.8625 L12.8245,27.8615 L35.1745,27.8615 L35.175,24.8625 C35.175,24.6375 35.325,24.4875 35.55,24.4875 L40.125,24.4875 C40.35,24.4875 40.5,24.6375 40.5,24.8625 L40.4995,27.8615 L44.989142,27.861662 C45.1194286,27.6383734 45.3617006,27.4875 45.6375,27.4875 L45.6566718,27.4877225 C45.6627641,27.4875744 45.6688738,27.4875 45.675,27.4875 L46.3125,27.4875 L46.3125,10.1625 Z M33.375,1.6875 L14.625,1.6875 L14.625,8.6625 L33.375,8.6625 L33.375,1.6875 Z" id="形状结合" fill="#C3141F"></path>
            </g>
        </g>
    </g>
</svg>
