<?xml version="1.0" encoding="UTF-8"?>
<svg width="16px" height="16px" viewBox="0 0 16 16" version="1.1" xmlns="http://www.w3.org/2000/svg" xmlns:xlink="http://www.w3.org/1999/xlink">
    <!-- Generator: Sketch 59 (86127) - https://sketch.com -->
    <title>icon/页脚-地址-小程序</title>
    <desc>Created with Sketch.</desc>
    <g id="页面-2" stroke="none" stroke-width="1" fill="none" fill-rule="evenodd">
        <g id="画板" transform="translate(-136.000000, -624.000000)" fill-rule="nonzero">
            <g id="icon/页脚-地址-小程序" transform="translate(136.000000, 624.000000)">
                <rect id="矩形" fill="#000000" opacity="0" x="0" y="0" width="16" height="16"></rect>
                <path d="M8,15.12 C11.9323125,15.12 15.12,11.9323125 15.12,8 C15.12,4.0676875 11.9323125,0.88 8,0.88 C4.0676875,0.88 0.88,4.0676875 0.88,8 C0.88,11.9323125 4.0676875,15.12 8,15.12 Z M8,14 C4.68640625,14 2,11.3135937 2,8 C2,4.68640625 4.68640625,2 8,2 C11.3135937,2 14,4.68640625 14,8 C14,11.3135937 11.3135937,14 8,14 Z M8.50464063,6.33248437 C8.5045079,5.84205038 8.79983607,5.39983389 9.25289991,5.21206096 C9.70596375,5.02428802 10.2275287,5.12794203 10.5743648,5.47468431 C10.921201,5.82142659 11.0249962,6.34296347 10.8373459,6.79607811 C10.6496956,7.24919276 10.207559,7.54464061 9.717125,7.54464062 C9.45202832,7.54464062 9.237125,7.75954395 9.237125,8.02464062 C9.237125,8.2897373 9.45202832,8.50464063 9.717125,8.50464063 C10.9168125,8.50464063 11.8894375,7.532 11.8894375,6.3323125 C11.8894375,5.132625 10.9167969,4.16 9.717125,4.16 C8.51745312,4.16 7.54464063,5.13264062 7.54464063,6.3323125 C7.54464063,6.59740918 7.75954395,6.8123125 8.02464062,6.8123125 C8.2897373,6.8123125 8.50464063,6.59740918 8.50464063,6.3323125 L8.50464063,6.33248437 Z M7.54464063,9.664 C7.54464063,10.333546 7.00186633,10.8763203 6.33232031,10.8763203 C5.66277429,10.8763203 5.12,10.333546 5.12,9.664 C5.11995441,9.34244496 5.2476597,9.03404437 5.47501734,8.8066545 C5.70237497,8.57926463 6.01075745,8.45151562 6.3323125,8.45151562 C6.59740917,8.45151561 6.81231248,8.2366123 6.81231248,7.97151562 C6.81231248,7.70641895 6.59740917,7.49151562 6.3323125,7.49151562 C5.13279688,7.49151562 4.16,8.464 4.16,9.664 C4.16,10.8636875 5.13264063,11.8363125 6.3323125,11.8363125 C7.53215625,11.8363125 8.50464063,10.8636875 8.50464063,9.664 C8.50464063,9.39890332 8.2897373,9.184 8.02464063,9.184 C7.75954395,9.184 7.54464063,9.39890332 7.54464063,9.664 L7.54464063,9.664 Z M7.54464063,6.2836875 L7.54464063,9.68640625 L8.50464063,9.68640625 L8.50464063,6.2836875 L7.54464063,6.2836875 Z" id="形状" fill="#FFFFFF"></path>
            </g>
        </g>
    </g>
</svg>