<?xml version="1.0" encoding="UTF-8"?>
<svg width="16px" height="16px" viewBox="0 0 16 16" version="1.1" xmlns="http://www.w3.org/2000/svg" xmlns:xlink="http://www.w3.org/1999/xlink">
    <!-- Generator: Sketch 59 (86127) - https://sketch.com -->
    <title>icon/页脚-电话</title>
    <desc>Created with Sketch.</desc>
    <g id="页面-2" stroke="none" stroke-width="1" fill="none" fill-rule="evenodd">
        <g id="画板" transform="translate(-88.000000, -624.000000)" fill-rule="nonzero">
            <g id="icon/页脚-电话" transform="translate(88.000000, 624.000000)">
                <rect id="矩形" fill="#000000" opacity="0" x="0" y="0" width="16" height="16"></rect>
                <path d="M14.1882444,10.8041628 L13.9908742,10.5505267 L13.9836151,10.54282 C13.9191788,10.4752178 13.7363428,10.2891999 13.4373295,10.032382 C13.0797799,9.72475062 12.4418444,9.27102625 12.3915105,9.23743302 L11.4990277,8.69842247 C11.3352187,8.61628616 11.1614485,8.59906583 11.0443919,8.59906583 C10.917342,8.59906583 10.792115,8.61948398 10.6827651,8.65803384 C10.2966589,8.79279048 9.93639114,9.40124195 9.83612311,9.58498937 C9.7898185,9.66984384 9.73902094,9.77148692 9.69545048,9.86086633 L9.68139602,9.88900725 C9.62695292,9.99744573 9.56613017,10.1190273 9.50170984,10.237459 C9.43816892,10.3517975 9.30208519,10.4679587 9.16413072,10.4679587 C9.12150362,10.4679587 9.08157869,10.4575178 9.04302883,10.4357406 C8.4449863,10.0922614 7.73674648,9.64763489 7.01440423,8.95159481 C6.19951673,8.16574362 5.71582867,7.54459675 5.44813816,6.93843173 C5.43181322,6.89690789 5.43362,6.70884339 5.53978802,6.65643094 C5.68634466,6.58337647 5.80567175,6.53552092 5.91092837,6.49286184 L5.93543975,6.48219708 C6.086985,6.42071877 6.23080748,6.36263014 6.39460044,6.26282581 C6.46536845,6.21722473 6.50303892,6.19635887 6.53525708,6.17819519 L6.55158202,6.1684578 C6.61056603,6.13646348 6.6659205,6.10582827 6.83561344,5.99150577 C6.8428885,5.98627731 6.87373159,5.96087053 6.90639745,5.93296945 L7.01528362,5.83449222 C7.29977873,5.56023017 7.39325136,5.15661581 7.25304242,4.80726867 L7.20405164,4.6659405 C7.20314027,4.66229497 7.02255869,4.24214783 6.73307497,3.74283836 C6.59241833,3.50122617 6.37915492,3.17997198 6.19040291,2.92499286 C5.68042867,2.23736308 5.20855659,2.01752812 5.20628614,2.01664872 C5.20129752,2.01391458 5.07878858,1.94880672 5.00347964,1.91455794 C4.69584822,1.78296716 4.34827587,1.78771594 4.03794228,1.92384764 C3.57424067,2.09808152 3.28974556,2.33582433 2.98711873,2.58856497 L2.92085966,2.64526253 C2.02247677,3.39528202 1.53586269,4.37373862 1.65064886,5.2001863 C1.82285211,6.44999492 3.26659325,9.0010653 5.14049075,10.8069129 C7.01347686,12.6113695 9.65096864,13.9984131 10.9391193,14.162222 C11.0366691,14.1749334 11.1369532,14.1812811 11.2372212,14.1812811 C12.1678062,14.1812811 12.893794,13.613666 13.4214682,13.1190893 C13.6846018,12.8722646 14.0321582,12.4652446 14.2172647,12.0623657 C14.3806419,11.7084617 14.458685,11.1930191 14.1882444,10.8041628 M4.58058236,7.3197572 C4.90182056,8.04640053 5.44992894,8.76057233 6.3564823,9.63354845 C7.1486652,10.3980701 7.92047791,10.8840286 8.57157247,11.2583508 C8.75850173,11.3649506 8.95859008,11.418946 9.16459441,11.418946 C9.69455509,11.418946 10.1319226,11.055992 10.3315792,10.696172 C10.4064564,10.5595926 10.4726675,10.4266587 10.5452583,10.2805658 L10.575222,10.2188796 C10.6087992,10.1530682 10.6391786,10.0918138 10.6668719,10.0396251 C10.817042,9.7687528 10.9599851,9.60495984 11.022151,9.54869398 C11.0394033,9.54779859 11.0638827,9.54826228 11.0779532,9.54963734 L11.8706157,10.0287685 L11.8837588,10.0378184 C12.0761084,10.1752932 12.5520897,10.520595 12.8189008,10.7506311 C13.051639,10.9502717 13.2018252,11.0986511 13.250816,11.1467465 C13.2594661,11.1557804 13.2649024,11.1616964 13.2703707,11.1653099 L13.4155203,11.3513598 C13.4259612,11.3903733 13.4155203,11.5364823 13.3565523,11.6657866 C13.2281593,11.9443977 12.9627073,12.2501904 12.7739712,12.4271584 C12.1687176,12.9933985 11.7126908,13.2343231 11.2480938,13.2343231 C11.1868393,13.2343231 11.1232984,13.2302299 11.0593258,13.2216118 C10.0747293,13.0968484 7.59695327,11.8576885 5.79746931,10.1240159 C4.00390136,8.39533197 2.72032362,6.01553747 2.58964422,5.07065809 C2.52068297,4.57245187 2.88910519,3.90640745 3.52795205,3.37280123 L3.59646559,3.31631153 C3.87414933,3.08286981 4.05791273,2.92883025 4.39411678,2.80178039 C4.45218941,2.777285 4.49890973,2.76481345 4.53793927,2.76481345 C4.5656165,2.76481345 4.5951165,2.77069747 4.62052328,2.78137822 C4.65410052,2.79725545 4.71036637,2.82649962 4.744839,2.84511102 L4.7747867,2.8603167 C4.77796855,2.86191562 5.08061136,3.02024028 5.42815172,3.48939419 C5.6014742,3.72171667 5.79113761,4.00800258 5.91271919,4.21763644 C6.04611675,4.44904755 6.17906661,4.70493805 6.30745955,4.97852855 C6.31246416,4.98876161 6.31654139,4.99760361 6.32017092,5.00463884 L6.36191861,5.13008978 C6.36510045,5.1375727 6.36599584,5.14166594 6.36690723,5.14166594 C6.36508447,5.14392041 6.36009586,5.14913287 6.3514777,5.15754317 L6.32380047,5.18498056 C6.31201645,5.19610902 6.29930508,5.20813286 6.292046,5.21606348 C6.17180752,5.29546566 6.13050752,5.31813828 6.08786444,5.3428895 C6.04611675,5.36557811 5.99530319,5.39349519 5.89457148,5.45721198 C5.80109886,5.51438922 5.70717853,5.55250737 5.57379697,5.60627892 C5.44175848,5.65934694 5.29748831,5.71881062 5.11960891,5.80659111 C4.48077803,6.12237703 4.39545987,6.90212036 4.58058236,7.3197572" id="形状" fill="#EC3030"></path>
            </g>
        </g>
    </g>
</svg>