<?xml version="1.0" encoding="UTF-8"?>
<svg width="16px" height="16px" viewBox="0 0 16 16" version="1.1" xmlns="http://www.w3.org/2000/svg" xmlns:xlink="http://www.w3.org/1999/xlink">
    <!-- Generator: Sketch 59 (86127) - https://sketch.com -->
    <title>icon/页脚-地址</title>
    <desc>Created with Sketch.</desc>
    <g id="页面-2" stroke="none" stroke-width="1" fill="none" fill-rule="evenodd">
        <g id="画板" transform="translate(-88.000000, -564.000000)" fill-rule="nonzero">
            <g id="icon/页脚-地址" transform="translate(88.000000, 564.000000)">
                <rect id="矩形" fill="#000000" opacity="0" x="0" y="0" width="16" height="16"></rect>
                <path d="M8,9.29375 C6.61109375,9.29375 5.48125,8.19734375 5.48125,6.84984375 C5.48125,5.50234375 6.61109375,4.40609375 8,4.40609375 C9.38890625,4.40609375 10.51875,5.5025 10.51875,6.85 C10.51875,8.1975 9.38890625,9.29375 8,9.29375 Z M8,5.26859375 C7.10125,5.26859375 6.37015625,5.978125 6.37015625,6.84984375 C6.37015625,7.7215625 7.10125,8.43125 8,8.43125 C8.89875,8.43125 9.62984375,7.72171875 9.62984375,6.85 C9.62984375,5.97828125 8.89875,5.26859375 8,5.26859375 L8,5.26859375 Z M8,14.7565625 C7.9140625,14.7565625 7.828125,14.7323438 7.75328125,14.6840625 C7.52734375,14.5378125 2.2215625,11.05625 2.2215625,6.84984375 C2.2215625,3.7584375 4.81375,1.24328125 8,1.24328125 C11.18625,1.24328125 13.7784375,3.75859375 13.7784375,6.85 C13.7784375,11.004375 8.47484375,14.5342188 8.2490625,14.6825 C8.17390625,14.731875 8.08703125,14.7565625 8,14.7565625 Z M8,2.1059375 C5.30390625,2.1059375 3.11046875,4.23421875 3.11046875,6.84984375 C3.11046875,10.1115625 6.970625,13.0667187 7.9984375,13.7953125 C9.025,13.0589062 12.8895312,10.0707813 12.8895312,6.84984375 C12.8895312,4.23421875 10.6960937,2.1059375 8,2.1059375 Z" id="形状" fill="#EC3030"></path>
            </g>
        </g>
    </g>
</svg>